<svg width="149" height="54" viewBox="0 0 149 54" fill="none" xmlns="http://www.w3.org/2000/svg">
<path d="M3.98828 21H0.0644531V0.847656H6.18945L9.85352 16.6934L13.4902 0.847656H19.5469V21H15.623V7.36914C15.623 6.97721 15.6276 6.43034 15.6367 5.72852C15.6458 5.01758 15.6504 4.4707 15.6504 4.08789L11.8359 21H7.74805L3.96094 4.08789C3.96094 4.4707 3.96549 5.01758 3.97461 5.72852C3.98372 6.43034 3.98828 6.97721 3.98828 7.36914V21ZM32.4559 16.8574H25.032L23.6375 21H19.2352L26.4266 0.847656H31.1844L38.3211 21H33.7547L32.4559 16.8574ZM31.2801 13.3848L28.7645 5.45508L26.1668 13.3848H31.2801ZM50.4508 20.5078C49.3388 21.1914 47.9716 21.5332 46.3492 21.5332C43.6786 21.5332 41.4911 20.6081 39.7867 18.7578C38.0094 16.8984 37.1207 14.3555 37.1207 11.1289C37.1207 7.86589 38.0185 5.25 39.8141 3.28125C41.6096 1.3125 43.984 0.328125 46.9371 0.328125C49.4983 0.328125 51.5536 0.979818 53.1031 2.2832C54.6617 3.57747 55.5549 5.19531 55.7828 7.13672H51.6402C51.3212 5.76042 50.5419 4.79883 49.3023 4.25195C48.6096 3.95117 47.8395 3.80078 46.9918 3.80078C45.3694 3.80078 44.0341 4.41602 42.9859 5.64648C41.9469 6.86784 41.4273 8.70898 41.4273 11.1699C41.4273 13.6491 41.9924 15.4036 43.1227 16.4336C44.2529 17.4635 45.538 17.9785 46.9781 17.9785C48.3909 17.9785 49.5484 17.5729 50.4508 16.7617C51.3531 15.9414 51.9091 14.8704 52.1188 13.5488H47.4566V10.1855H55.8512V21H53.0621L52.6383 18.4844C51.8271 19.4414 51.0979 20.1159 50.4508 20.5078ZM56.7562 0.847656H60.9398V21H56.7562V0.847656ZM78.3469 0.847656L71.6066 13.4258V21H67.3957V13.4258L60.423 0.847656H65.3859L69.5695 9.625L73.5754 0.847656H78.3469ZM87.1816 16.8574H79.7578L78.3633 21H73.9609L81.1523 0.847656H85.9102L93.0469 21H88.4805L87.1816 16.8574ZM86.0059 13.3848L83.4902 5.45508L80.8926 13.3848H86.0059ZM19.3199 53H10.1871V32.8477H19.9762C22.4462 32.8841 24.1962 33.5996 25.2262 34.9941C25.846 35.8509 26.1559 36.8763 26.1559 38.0703C26.1559 39.3008 25.846 40.2897 25.2262 41.0371C24.8798 41.4564 24.3694 41.8392 23.6949 42.1855C24.7249 42.5592 25.4996 43.1517 26.0191 43.9629C26.5478 44.7741 26.8121 45.7585 26.8121 46.916C26.8121 48.11 26.5113 49.181 25.9098 50.1289C25.527 50.7578 25.0484 51.2865 24.4742 51.7148C23.8271 52.207 23.0615 52.5443 22.1773 52.7266C21.3023 52.9089 20.3499 53 19.3199 53ZM19.2242 44.127H14.2066V49.5H19.1559C20.04 49.5 20.7281 49.3815 21.2203 49.1445C22.1135 48.707 22.5602 47.8685 22.5602 46.6289C22.5602 45.5807 22.1272 44.8607 21.2613 44.4688C20.7783 44.25 20.0992 44.1361 19.2242 44.127ZM21.316 40.2852C21.8629 39.957 22.1363 39.3691 22.1363 38.5215C22.1363 37.5827 21.7717 36.9629 21.0426 36.6621C20.4137 36.4525 19.6116 36.3477 18.6363 36.3477H14.2066V40.791H19.1559C20.04 40.791 20.76 40.6224 21.316 40.2852ZM39.352 48.8574H31.9281L30.5336 53H26.1313L33.3227 32.8477H38.0805L45.2172 53H40.6508L39.352 48.8574ZM38.1762 45.3848L35.6605 37.4551L33.0629 45.3848H38.1762ZM44.9875 32.8477H49.1984V49.377H59.1789V53H44.9875V32.8477ZM77.1602 53H71.7461L65.5254 44.1953L63.5156 46.2598V53H59.373V32.8477H63.5156V41.1465L71.2949 32.8477H76.7363L68.4785 41.1465L77.1602 53ZM85.6531 53.5605C82.7729 53.5605 80.5717 52.7767 79.0496 51.209C77.0079 49.2858 75.9871 46.515 75.9871 42.8965C75.9871 39.2051 77.0079 36.4342 79.0496 34.584C80.5717 33.0163 82.7729 32.2324 85.6531 32.2324C88.5333 32.2324 90.7345 33.0163 92.2566 34.584C94.2892 36.4342 95.3055 39.2051 95.3055 42.8965C95.3055 46.515 94.2892 49.2858 92.2566 51.209C90.7345 52.7767 88.5333 53.5605 85.6531 53.5605ZM89.6316 48.1465C90.6069 46.916 91.0945 45.166 91.0945 42.8965C91.0945 40.6361 90.6023 38.8906 89.618 37.6602C88.6427 36.4206 87.3211 35.8008 85.6531 35.8008C83.9852 35.8008 82.6544 36.416 81.6609 37.6465C80.6674 38.877 80.1707 40.627 80.1707 42.8965C80.1707 45.166 80.6674 46.916 81.6609 48.1465C82.6544 49.377 83.9852 49.9922 85.6531 49.9922C87.3211 49.9922 88.6473 49.377 89.6316 48.1465ZM112.029 53H107.818L99.5875 38.6855V53H95.6637V32.8477H100.08L108.105 46.916V32.8477H112.029V53ZM122.08 53.5605C119.2 53.5605 116.999 52.7767 115.477 51.209C113.435 49.2858 112.414 46.515 112.414 42.8965C112.414 39.2051 113.435 36.4342 115.477 34.584C116.999 33.0163 119.2 32.2324 122.08 32.2324C124.961 32.2324 127.162 33.0163 128.684 34.584C130.717 36.4342 131.733 39.2051 131.733 42.8965C131.733 46.515 130.717 49.2858 128.684 51.209C127.162 52.7767 124.961 53.5605 122.08 53.5605ZM126.059 48.1465C127.034 46.916 127.522 45.166 127.522 42.8965C127.522 40.6361 127.03 38.8906 126.045 37.6602C125.07 36.4206 123.748 35.8008 122.08 35.8008C120.412 35.8008 119.082 36.416 118.088 37.6465C117.095 38.877 116.598 40.627 116.598 42.8965C116.598 45.166 117.095 46.916 118.088 48.1465C119.082 49.377 120.412 49.9922 122.08 49.9922C123.748 49.9922 125.075 49.377 126.059 48.1465ZM130.669 32.8477H135.167L139.542 48.1465L143.958 32.8477H148.333L141.456 53H137.478L130.669 32.8477Z" fill="#001736"/>
</svg>
